# xmcd CD database file
#
# Track frame offsets:
#	150
#	13510
#	26420
#	41283
#	54493
#	66291
#	80738
#	90045
#	99258
#	113986
#	129986
#	141039
#	152397
#	163705
#	177907
#	191079
#	200767
#	209172
#	223387
#	233862
#
# Disc length: 3326 seconds
#
# Revision: 1
# Processed by: cddbd v1.5.2PL0 Copyright (c) Steve Scherf et al.
# Submitted via: CDex 1.51
#
DISCID=130cfc14
DTITLE=Bohém Ragtime Jazzband - From Ragtime To Ragtime
DYEAR=1900
DGENRE=Jazz
TTITLE0=The Cascades- Scott Joplin
TTITLE1=Tosca Rag - Aladár Székely
TTITLE2=Knock-Out Drops - Frank Meyr
TTITLE3=Ragtime Violin! - Irving Berlin
TTITLE4=Grotesk Rag - Ralph Erwin
TTITLE5=Skeeper Rag - Aladár Székely
TTITLE6=My Gal In A High-Born Lady - Barney Fagan
TTITLE7=Der Synkopengeiger - Karl Haupt
TTITLE8=Ragtime Medley - The Fascinator - Scott Joplin The Babies - Charles Jonson Perkin Rag Joe Jordan
TTITLE9=Gyere Josephin! - Béla Zerkovitz - László Szilágyi
TTITLE10=Florida Rag - Albert Szirmai
TTITLE11=Bent a szivem méhyén Deep In My Heart - Aladár Székely
TTITLE12=The Mysterious Rag - Irving Berlin
TTITLE13=Pitter Patter Rag - Joseph M Daly
TTITLE14=Rhapsodiy Rag - Harry Jentes
TTITLE15=Meine Molly Under The Bamboo Tree - B C Jonson Eugen Matráy
TTITLE16=Nervous Rag - Aladár Székely
TTITLE17=The Ragtime Dance - Scott Joplin
TTITLE18=I´m Always Chasing Rainbows - Harry CJ McCathy
TTITLE19=Log Cabin Blues - George Hamilton Green
EXTD=
EXTT0=
EXTT1=
EXTT2=
EXTT3=
EXTT4=
EXTT5=
EXTT6=
EXTT7=
EXTT8=
EXTT9=
EXTT10=
EXTT11=
EXTT12=
EXTT13=
EXTT14=
EXTT15=
EXTT16=
EXTT17=
EXTT18=
EXTT19=
PLAYORDER=
